<svg xmlns="http://www.w3.org/2000/svg" data-name="Layer 1" viewBox="0 0 4000 4000"><path fill="#66feff" d="M3469.7 2065.59a1458.14 1458.14 0 0 1-20.78 245.69 1441.86 1441.86 0 0 1-307.11 672.5C2876.05 3308.09 2472.33 3515 2020.27 3515c-728.81 0-1332-537.9-1434.11-1238.31a1448.28 1448.28 0 0 1-15.32-211.13c0-287 83.39-554.4 227.22-779.52a1451.63 1451.63 0 0 1 92.69-128.93 1479.77 1479.77 0 0 1 105.77-117.67A1442.38 1442.38 0 0 1 1135.6 917.4q24-18.58 48.83-36.1a.1.1 0 0 1 .14 0c236.17-167 524.39-265.14 835.7-265.14 629.4 0 1165.12 401.13 1365.34 961.77a1446.87 1446.87 0 0 1 84.09 487.66Z"/><path fill="#22a7f0" d="M1424.06 1462.24v213.33c-8.3 75.57 3.28 171.06 73.58 200 50.19 20.67 108.79-6 146.32-45.21s61-89.55 93.24-133.21 79.08-82.85 133.35-82.35c42.31.39 83.2 27.51 100 66.34 27.86 64.32-13.54 117.77-79.67 142.59-24.53 9.21-131.33 70.22-140.44 160 122.75-67.27 126.57-61.27 165.15-71.52 102.73-27.31 197.87-1.9 170.24 75.79-3.16 8.88-7.73 17.74-7.07 27.15 1.53 21.7 39.69 21.57 55.41 21.15 23-.6 45.54-7.48 67.6-13.17 42.07-10.86 93.86-28.25 132.75.69 35.33 26.3 38.34 80.66 19 120.24s-55.16 68-89.4 95.72c-125.56 101.58-246.56 214.46-323.07 356.69s-52.06 319.17-5.55 473.84c33.4 111 27 233.6-17.64 340.6-13.61 32.58-31.32 64.57-58.66 86.91s-66 33.44-99 20.79c-43.62-16.73-63.13-66-82.35-108.59s-52.09-88.9-98.78-87.27c-49.33 1.73-78 54.4-116.16 85.76-64.82 53.34-166.2 42.35-233.5-7.82s-105.57-130.6-128-211.49c-12-43.29-29.79-106.41-87.94-99.51-15.87 1.89-30.41 9.57-45.83 13.81s-33.8 4.27-45.24-6.89c-11.21-10.92-11.89-28.8-8.67-44.11s9.58-30.15 9.84-45.8c1.87-110.36-155.55-61.9-214.77-62.83-50.39-.79-104.49-17.5-132.73-59.23-24.3-35.93-23.7-86.95 1.46-122.29 43.39-61 120.36-28.77 173.29-73.45 77.34-65.28-38.46-138.62-98.13-146.58-33.11-4.42-70.2-10.54-89.68-37.68-22.35-31.12-8.55-78.48 22.3-101.19s72.93-24.66 110.22-15.85 71.51 27.09 106.71 42.22c62.82 27 201.22 47.16 207.34-57.8 2.24-38.39-26.07-71.91-57-94.75s-66.72-40.17-91.75-69.37-35.43-76.59-9.57-105.06c23-25.31 64.5-24.22 95-8.81s53.74 41.81 79.57 64.22 57.82 42 91.87 38.86c38.84-3.59 69.79-36.83 82.71-73.63s17.16-78.66 15.5-117.63v-550.11"/><g opacity=".3"><path fill="#6b184e" d="M1706.29 1745c-.85.86-1.63 1.72-2.57 2.58 10.77-17.17 21.53-34.25 33.47-50.48a276.83 276.83 0 0 1 26.61-31.1c-17.4 27.79-34.88 55.48-57.51 79Z"/><path fill="#102770" d="m1687 1767.66 13.74-21.9c10-15.89 21.27-33.91 33.61-50.69a281 281 0 0 1 26.94-31.52l22.13-22.31-16.68 26.63c-17.06 27.23-34.7 55.39-57.94 79.6l-.86.87c-.6.62-1.2 1.24-1.87 1.86Z"/></g><path fill="#102770" d="M1915.16 3417.36c-13.27 30.27-30.35 59.53-55.86 80.44-27.39 22.32-66 33.4-99 20.76-43.62-16.7-63.12-66-82.32-108.61s-52.12-88.87-98.77-87.23c-49.31 1.72-78.1 54.38-116.18 85.75-64.83 53.36-166.18 42.36-233.52-7.8s-105.56-130.61-128-211.52c-12-43.3-29.73-106.42-87.93-99.48-15.84 1.87-30.43 9.52-45.8 13.81s-33.78 4.21-45.25-6.94c-11.24-10.93-11.86-28.79-8.66-44.09s9.59-30.11 9.83-45.79c1.87-110.33-155.58-61.88-214.79-62.81-50.33-.78-104.48-17.56-132.72-59.22-24.26-36-23.72-87 1.48-122.34 12.25-17.16 27.23-27 43.54-33.16-2.26 24.5 3.51 49.78 17.32 70.14 28.24 41.75 82.31 58.44 132.71 59.3 59.22.94 216.67-47.59 214.8 62.81-.24 15.6-6.63 30.5-9.83 45.8s-2.58 33.16 8.66 44.08c11.47 11.16 29.8 11.16 45.25 6.94s30-11.93 45.8-13.81c58.13-6.94 75.91 56.18 87.93 99.48 22.47 80.91 60.7 161.35 128 211.52s168.69 61.17 233.52 7.8c38.08-31.37 66.79-84 116.18-85.75 46.65-1.63 79.58 44.63 98.77 87.23s38.7 91.91 82.31 108.61c30.5 11.72 65.77 3.12 92.53-15.92Z" opacity=".3"/><path fill="#fff" d="M944.72 2447.4c-39.63 49.77-140 32.45-190.84 10.61-35.18-15.14-69.44-33.4-106.73-42.21-24.19-5.7-50.32-7-74.2-.78a70.91 70.91 0 0 1 12.48-11.63c30.82-22.7 72.88-24.65 110.17-15.84s71.55 27.08 106.73 42.21c35.74 15.37 96.05 28.56 142.39 17.64Z" opacity=".55"/><path fill="#fff" d="M1117.78 2197.1a73.74 73.74 0 0 0 7.49-1.09c-15 16-34.18 27.23-55.94 29.26-34 3.12-66-16.46-91.84-38.86s-49.07-48.76-79.58-64.21c-16.07-8.11-35.26-12.25-53.13-10.61a55.68 55.68 0 0 1 6.55-8.82c23-25.27 64.53-24.18 95-8.81s53.76 41.82 79.59 64.29 57.84 41.97 91.86 38.85Z" opacity=".55"/><path fill="#fff" d="M1578.5 1874.33c-36.83 30-86.22 47.28-129.29 29.49-70.29-29-81.92-124.45-73.57-200v-213.36l-159.63-5v-29.73l208.08 6.48v213.31c-8.35 75.6 3.28 171.1 73.57 200 26.06 10.82 54.39 8.79 80.84-1.19Z" opacity=".55"/><path fill="#fff" d="M1822.08 1643a116 116 0 0 0-40.81 7.18c25.91-21.22 56.26-35.66 89.26-35.34 42.37.39 83.25 27.46 100 66.32 27.47 63.43-12.4 116.33-76.93 141.53 33.4-28.25 48.07-68 28.48-113.29-16.75-38.87-57.64-66.02-100-66.4Z" opacity=".55"/><path fill="#fff" d="M2353.56 2144.05c-19.27 39.55-55.16 67.95-89.41 95.65-125.54 101.59-246.55 214.48-323 356.72s-52.12 319.18-5.54 473.82c33.39 111.11 27 233.6-17.71 340.65-13.58 32.53-31.29 64.52-58.59 86.91a119.31 119.31 0 0 1-41.36 21.85c23.33-21.77 39.17-51 51.58-80.6 44.62-107 51-229.54 17.63-340.56-46.58-154.64-71-331.59 5.54-473.83s197.47-255.13 323.09-356.71c34.17-27.7 70.06-56.1 89.33-95.74s16.31-93.93-19-120.23c-38.85-28.94-90.66-11.54-132.71-.7-22.08 5.7-44.63 12.56-67.65 13.19-15.68.46-53.83.54-55.39-21.15-.63-9.44 3.9-18.26 7.1-27.15 27.62-77.71-67.57-103.07-170.24-75.76-38.63 10.22-42.45 4.21-165.18 71.47 9-88.56 113.13-149.1 139.43-159.56-38.78 27.86-85.12 73.66-91 131.39 122.73-67.25 126.56-61.32 165.18-71.54 102.67-27.31 197.86-1.87 170.24 75.76-3.2 8.89-7.72 17.79-7.1 27.15 1.56 21.77 39.71 21.61 55.4 21.22 22.93-.62 45.56-7.49 67.64-13.19 42.05-10.92 93.86-28.24 132.71.71 35.32 26.29 38.28 80.59 19.01 120.23Z" opacity=".55"/><path fill="#102770" d="M1790.15 3544.93a104.17 104.17 0 0 1-37.35-6.76c-48.9-18.76-70.86-67.9-90.25-111.25l-3.72-8.31c-12.88-28.56-40.28-76.23-78.92-74.92-25.83.9-45.81 22.28-68.94 47-10.87 11.63-22.11 23.66-34.62 34-67.65 55.68-179.16 52.58-259.38-7.2-61.8-46.07-107.46-121-135.69-222.7-16-57.78-31.13-88.32-65.25-84.29-7.49.89-15.51 3.83-24 7-5.95 2.18-12.11 4.44-18.72 6.25-26.3 7.24-50.16 2.83-65.47-12.09-14.93-14.55-20.1-37.1-14.55-63.46 1.25-5.94 2.84-11.54 4.37-17 2.52-8.89 4.9-17.29 5-24.87.28-16.57-3.75-28.4-12.32-36.14-24.6-22.21-85.79-14.92-130.47-9.58-20 2.39-37.35 4.48-51.33 4.24-66.46-1-121-26-149.78-68.46-29.36-43.4-28.65-103.53 1.74-146.22 29-40.69 70-47.17 106.25-52.89 26.35-4.16 51.24-8.08 70.6-24.42 20.44-17.26 19.53-30.49 17.06-38.95-9.15-31.31-66-65.68-104.42-70.8-31.16-4.16-78.25-10.43-104-46.24-30.6-42.61-10.37-102.89 26.91-130.33 32.34-23.81 78.82-30.88 127.48-19.37 30 7.09 57.7 19.69 84.47 31.87 8.55 3.89 17.1 7.79 25.71 11.49 40.28 17.32 114.38 31 153 7.17 15.65-9.66 23.88-25 25.15-46.91 2-34.05-29.55-62.64-48.53-76.65-9.24-6.81-18.9-13.1-29.13-19.75-23.1-15-47-30.53-66.1-52.85-31-36.15-42.88-95.72-9.16-132.82 31.68-34.87 84.43-31.4 120-13.43 25.11 12.68 45 31.26 64.26 49.23 6.71 6.26 13 12.18 19.6 17.87 28.24 24.5 53.92 35.83 76.19 33.81 31.33-2.9 55.14-32.06 64.84-59.69 14-39.88 15.53-81.71 14.33-109.78v-550.99a21 21 0 1 1 42 0v549.63c1.32 31.75-.53 79.06-16.68 125-17.26 49.15-56.74 83.53-100.58 87.57-34.64 3.22-69.82-11.16-107.56-43.9-7.13-6.19-14-12.65-20.74-18.89-17.88-16.7-34.77-32.46-54.53-42.45-22-11.1-54-13.42-70 4.2-17.88 19.67-8.74 55.44 10 77.28 15.18 17.73 35.54 31 57.09 45 10.3 6.69 21 13.61 31.19 21.17 44.56 32.9 67.83 73 65.5 112.86-2.07 35.56-17.63 63.29-45 80.19-54.66 33.75-144.51 15.9-191.58-4.33-8.88-3.82-17.7-7.83-26.52-11.85-26.08-11.86-50.71-23.08-76.73-29.23-36.67-8.66-70.55-4.17-92.95 12.33-21 15.46-33.31 50.3-17.69 72.05 14 19.46 43.64 24.88 75.41 29.12 47.69 6.36 123.7 47.73 139.16 100.64 5 17.14 7.73 50.7-30.28 82.78-28.31 23.9-61.69 29.17-91.13 33.81-33.44 5.28-59.86 9.45-78.6 35.77-20.11 28.26-20.6 69.63-1.16 98.36 29.74 44 90.8 49.62 115.66 50 11.18.14 27.95-1.83 45.71-3.95 55.6-6.64 124.8-14.89 163.57 20.11 17.85 16.12 26.65 39 26.16 68-.22 13-3.62 25-6.62 35.59-1.4 5-2.72 9.64-3.68 14.16-2.33 11.13-1.24 20.85 2.78 24.77s14 4.72 25 1.68c4.93-1.35 10-3.22 15.4-5.19 9.91-3.63 21.14-7.75 33.51-9.22 76.24-9 98.62 71.47 110.64 114.74 25.69 92.52 66.17 159.9 120.34 200.27 55.42 41.31 147 58.32 207.62 8.45 10.39-8.55 20.22-19.07 30.62-30.21 25.77-27.56 55-58.81 98.14-60.32 46.66-1.66 88.94 33.74 118.65 99.62l3.78 8.43c16.85 37.68 34.27 76.65 67 89.18 23.48 9 54.15 2.16 78.15-17.44 20.38-16.66 37.09-41.68 52.58-78.75 42.52-101.81 48.68-220.81 16.91-326.47-61.85-205.66-59.51-365.88 7.15-489.82 81.76-152 211.87-268.83 328.36-363.07l2.38-1.92c31.74-25.66 64.55-52.2 81.35-86.67 14.9-30.57 14.22-74.17-12.71-94.21-27.49-20.45-66.38-10.1-104-.1q-5.58 1.49-11 2.89l-9.2 2.42c-20.11 5.32-40.91 10.83-63.09 11.41-49.08 1.21-74.9-12.38-76.89-40.66-.86-12.15 3.14-22.44 6.36-30.7.64-1.65 1.28-3.3 1.87-5 8.7-24.48-.69-34.68-3.77-38-17.66-19.17-71.85-28.92-141.31-10.46-6.08 1.62-11.33 2.85-16.31 4-24.69 5.78-42.54 10-144.14 65.63a21 21 0 0 1-31-20.52c10.38-102.29 125.91-167 154-177.47 34.17-12.83 59.57-33.84 69.68-57.66 7.48-17.62 6.84-36.78-1.89-57-13.56-31.3-46.85-53.38-81-53.69h-.84c-53 0-95 46.19-115.45 73.83-11.82 16-22.81 33.59-33.44 50.58-18.09 28.94-36.81 58.87-61.5 84.67-38 39.68-105.15 76.61-169.48 50.11-66.14-27.24-98.46-109.65-86.57-220.56v-212.09a21 21 0 1 1 42 0v213.32a19.7 19.7 0 0 1-.13 2.3c-3.77 34.4-10.56 149 60.72 178.32 41.9 17.25 92-7.82 123.16-40.33 21.72-22.68 38.49-49.5 56.24-77.9 11-17.67 22.48-35.94 35.28-53.26 25.14-34 77.84-90.87 149.19-90.87h1.23c51 .47 98.82 32.2 119.08 79 13.3 30.7 14 61.83 2 90-14.79 34.85-48 63.46-93.56 80.55-20.3 7.62-82.55 45-111.86 97.16 67.44-35.31 85.37-39.5 108.71-45 4.61-1.08 9.46-2.21 15.09-3.71 79.13-21 150.94-12.16 183 22.59 19.11 20.74 23.53 49.34 12.45 80.52-.72 2-1.51 4.06-2.3 6.1-1.49 3.82-3 7.74-3.48 10.58 3.06 1.48 11.75 4.18 33.78 3.61 17.28-.45 34.85-5.11 53.46-10l9.45-2.48c3.5-.9 7.06-1.85 10.68-2.82 42.81-11.38 96.11-25.56 139.85 7 46.08 34.29 47.47 101 25.39 146.27-20.9 42.85-57.4 72.37-92.7 100.92l-2.37 1.92c-113.24 91.61-239.55 204.87-317.79 350.32-61.12 113.63-62.41 263.39-3.93 457.84a528.11 528.11 0 0 1-18.46 354.81c-11.48 27.48-30.69 67.24-64.75 95.08-24.73 20.16-54.13 30.85-82.39 30.85Z"/><path fill="#fbbc91" d="M3448.48 2647.23 2566.84 2803l-682.69 301.48-335.5 95.65c-123.66 47.91-160.72-47.75-37.06-95.65L1653 3032.5l65.46-33.31-110.46 19.35-112 19.66c-313.41 88-352.81-52.59-39.48-140.52l-163.38 35.19c-39.94 13-73.57 16.31-99.94 13-97.45-12.17-96.2-115.4 51.18-163.22l498.48-135.45-258.56 32.07c-378.41 74.12-390.11-107.28-17.56-158 180-27.15 340.64-63.11 432.87-130.21-22.16-68-125.54-103.23-269.18-122.11-127.64-21.22-171.49-174.84-60.39-190.45q182.1 61.68 395.1 56.57c157.22 4 264.65 43.07 337.14 106.81 80.9 71.15 191.38 98.31 296.24 73.73 238.28-55.94 429.12-123.43 713.43-207.85 65.23 29.34 117.51 101 148.79 185.93 43.68 118.23 46.81 262.31-12.26 353.54Z"/><path fill="#fff" d="m1742.23 2693.73-498.48 135.45c-65.15 21.14-101.67 53.05-113.84 83.17-17.94-37.76 15.29-94.41 113.84-126.4l189-51.33c16.15-2.42 33.08-5.31 50.87-8.82l27.15-3.36-4.91-23.64 236.33-59.53q43.92 27.27.04 54.46Z" opacity=".55"/><path fill="#fff" d="M1899 2437.59c-92.22 67.1-252.87 103.06-432.86 130.22-151.13 20.59-239.06 62.65-264.81 100.49-36.67-42.13 50.56-114.54 264.81-143.72 167.51-25.28 318.25-58.12 412.65-116.72l5.39-55.24c40.62 26.84 47.48 55.16 14.82 84.97Z" opacity=".55"/><path fill="#fff" d="M3492 2496.78c-6.63-143.33-77.39-296-180.7-342.52-284.31 84.42-475.15 151.91-713.43 207.85-104.86 24.58-215.34-2.57-296.24-73.73-72.49-63.74-179.92-102.83-337.14-106.81q-212.88 4.92-395.1-56.56c-34.09 4.76-53.6 22.54-60.46 45.56-10.69-41.51 6.78-81.22 60.46-88.79q182.1 61.68 395.1 56.57c157.22 4 264.65 43.07 337.14 106.81 80.9 71.16 191.38 98.31 296.24 73.73C2836.14 2263 3027 2195.46 3311.29 2111c113.76 51.22 188.19 231.22 180.71 385.78Z" opacity=".55"/><path fill="#102770" d="M1487.48 3236.7c-38.54 0-63-17.08-71.93-40-7.88-20.34-2.77-44 14-65 15.46-19.3 40.49-36.11 72.45-48.65l66.41-33.79-67.24 11.79c-133.75 37.41-231.67 38.11-268.75 1.9-13.63-13.31-18.53-30.79-13.82-49.25 4-15.56 14.78-31.14 31.78-46.35-82 12.93-131.61-17.34-144.4-56.78-15.22-46.89 19.34-113.88 131.15-150.16l1.09-.32 163.18-44.34c-109.18 11.83-188.14-.73-217.91-36.23-13.52-16.13-16.74-35.91-9.09-55.71 21.73-56.21 132.53-104.38 289.17-125.7 138.42-20.88 307.58-52.75 406.37-115.2-27.43-42.67-108.85-73.15-242.58-90.72l-.79-.12c-90.78-15.09-144.23-87.41-143.46-148.61.59-47.18 32.65-80.94 83.66-88.11a23.4 23.4 0 0 1 10.76 1c117.89 39.92 248.11 58.58 387 55.34h1.13c155.15 3.92 270.29 40.77 352 112.63 74.81 65.8 177.8 91.41 275.45 68.52 162.43-38.14 303.41-81.88 466.64-132.53 76.6-23.77 155.8-48.34 245.47-75a23.41 23.41 0 0 1 16.27 1.09c74.86 33.69 139.38 121 172.59 233.54 37.46 127 27.5 257.24-26 340a23.37 23.37 0 0 1-15.59 10.34l-878.79 155.24-680.1 300.33a23.46 23.46 0 0 1-3 1.1l-334.48 95.36c-26.32 10.07-49.25 14.39-68.64 14.39Zm231-260.92a23.41 23.41 0 0 1 10.6 44.27l-206.87 105.25a23.3 23.3 0 0 1-2.16 1c-24.46 9.47-43.62 21.79-54 34.7-5.89 7.34-8.53 14.54-6.89 18.77s8.44 7.77 17.74 9.23c16.34 2.56 38.8-1.23 63.26-10.71.67-.25 1.35-.48 2-.68l333.93-95.21 681.21-300.82a23.49 23.49 0 0 1 5.39-1.64L3434 2626c41.64-72 47.61-183 15.2-292.79-28.2-95.58-79.89-169.69-139.3-200.42-85.85 25.55-162.26 49.26-236.24 72.22-164.08 50.91-305.78 94.88-469.83 133.4-112.38 26.33-230.9-3.18-317.05-78.95-73-64.23-178.28-97.26-321.71-101-142 3.25-275.54-15.59-397-55.93-24.75 5-37.93 19.21-38.21 41.47-.45 35.28 35.43 90.21 104 101.78 173.23 22.82 264.74 66.67 288 138a23.39 23.39 0 0 1-8.48 26.17c-103.27 75.14-282 110.12-443.15 134.44-166.55 22.67-242 70-252.15 96.24-1.62 4.19-.86 6.16 1.31 8.75 14.42 17.2 87.39 40.78 260.41 6.89.53-.11 1.07-.19 1.62-.26L1740 2624a23.4 23.4 0 0 1 9 45.81l-497.93 135.3c-49.37 16.1-74.43 36.37-86.78 50.57s-17.46 29-13.77 40.44 16.42 20.37 34.91 24.65 50.76 6 100.49-10.17a20.39 20.39 0 0 1 2.29-.62l163.38-35.19a23.4 23.4 0 0 1 11.25 45.41c-136 38.16-193.42 83.74-198.87 105.07-.54 2.13-.4 2.64 1.18 4.18 15.74 15.38 88.54 24.39 224.52-13.8.76-.21 1.52-.38 2.29-.52l222.44-39a23.29 23.29 0 0 1 4.05-.35Zm1730-328.55Z"/><path fill="#102770" d="m1718.43 2841.19-257 79.37a23.5 23.5 0 1 1-13.86-44.9 25.73 25.73 0 0 1 4-.86Z"/><path fill="#102770" d="M3448.48 2647.23 2566.84 2803l-682.69 301.48-335.5 95.65c-123.66 47.91-160.72-47.75-37.06-95.65L1653 3032.5c9.21 2.66 18.65 5.15 28.32 7.65 102.27-11.72 323.77-105.36 567.85-214.57 71-31.76 133.77-80.72 177.7-144.87 33.4-48.78 85.58-79.41 163.4-85.28 109.55 20.22 343-20.68 590.44-68.49a347.77 347.77 0 0 0 234-165.36l42.43-72.31s1.25 1.48 3.59 4.45c43.69 118.2 46.82 262.28-12.25 353.51Z" opacity=".3"/><path fill="#fff" d="M1323.91 2810.77a64.51 64.51 0 0 0 64.25 21c-.34 2.8-.56 5.64-.63 8.48-1 43.82 1.5 127.36 45.36 128.38a78.94 78.94 0 0 0 38.32-8.83 76.63 76.63 0 0 0 124.3 47.44 55.9 55.9 0 0 0 107.88-2.28l441.79-52.42a102.52 102.52 0 0 0 164 47.69 101.58 101.58 0 0 0 32.45-50.4 151.22 151.22 0 0 0 142.72-206.62 90.94 90.94 0 0 0-26.82-126.21 42.2 42.2 0 0 0-47.17-60.82 151.26 151.26 0 0 0-145-216.89 62.41 62.41 0 0 0-102.71-46.77 56.82 56.82 0 0 0-92 10.75 151.22 151.22 0 0 0-281.88 11.31 89.43 89.43 0 0 0-42.41 20 90.6 90.6 0 0 0-32.15 66 62.4 62.4 0 0 0-74.87 87.92 42.2 42.2 0 0 0-37.59 44 102.43 102.43 0 0 0-114.46 147.67 73 73 0 0 0-51.11 76.58 64.37 64.37 0 1 0-112.32 54ZM1699.13 3005.06l4.26-.06"/><path fill="#102770" d="M1658.74 3013.78a76.19 76.19 0 0 1-49 17.42 55.87 55.87 0 0 0 66.25 9.3 56.13 56.13 0 0 1-17.25-26.72ZM1471.69 2962.57a76.65 76.65 0 0 0 73.5 62.08 75.62 75.62 0 0 0 26.26-4 76.5 76.5 0 0 1-37-54.28 79.28 79.28 0 0 1-38.35 8.83c-10.21-.2-18.21-4.97-24.41-12.63ZM1574.92 2560.41a102.34 102.34 0 0 1 90.13-21.34 42.27 42.27 0 0 1 37.57-44 62.41 62.41 0 0 1 74.89-87.9 90.43 90.43 0 0 1 32.14-66 89.09 89.09 0 0 1 42.39-20 151.19 151.19 0 0 1 126.67-101.49 151.18 151.18 0 0 0-189.9 95 89.08 89.08 0 0 0-42.4 20 90.5 90.5 0 0 0-32.14 66 62.42 62.42 0 0 0-74.89 87.91 42.23 42.23 0 0 0-37.56 44 102.46 102.46 0 0 0-114.49 147.69 73.29 73.29 0 0 0-40.89 31.94 64.18 64.18 0 0 1 53 51.17 73 73 0 0 1 51.09-76.58 102.6 102.6 0 0 1 24.39-126.4ZM1323.93 2810.76a64.42 64.42 0 0 0 64.24 21c-.33 2.82-.59 5.65-.64 8.51-1 43.8 1.5 127.34 45.34 128.37a78.64 78.64 0 0 0 37.18-8.27c-18.82-26.16-20.07-80.95-19.28-113.58 0-2.85.31-5.68.64-8.51a64.4 64.4 0 0 1-41-121.57 64.38 64.38 0 0 0-86.51 94Z" opacity=".3"/><g opacity=".3"><path fill="#6b184e" d="M1595.5 3007.26a76.22 76.22 0 0 1-24 13.4 75.85 75.85 0 0 0 37 10.52h1.35a55.85 55.85 0 0 1-14.35-23.92Z"/><path fill="#102770" d="m1661.44 3052.93-53.17-.84a97.39 97.39 0 0 1-47.5-13.45l-39.19-23.27 43.2-14.53a55.16 55.16 0 0 0 17.43-9.73l24.4-20.09 8.94 30.32a35.21 35.21 0 0 0 8.94 15Z"/><path fill="#6b184e" d="M1471.22 2959.86a9.61 9.61 0 0 1-1.17.55c.52.73 1.08 1.46 1.64 2.16-.18-.9-.33-1.79-.47-2.71Z"/><path fill="#102770" d="m1510 3042.82-54.51-67.07c-.83-1-1.66-2.11-2.43-3.19l-15.7-22 24.5-9.4 25.46-13.26 4.61 28.84c.07.52.15 1 .25 1.51Z"/><path fill="#6b184e" d="M1410.44 2716.75a62.08 62.08 0 0 1 11.82 10.87 64.45 64.45 0 0 1 14 29.19 72.65 72.65 0 0 1 10.2-44.64 64.68 64.68 0 0 0-36.02 4.58Z"/><path fill="#102770" d="M1415.71 2760.78a43.81 43.81 0 0 0-9.48-19.74 41.13 41.13 0 0 0-7.83-7.19l-30.37-21.4 34-14.86a85.35 85.35 0 0 1 47.65-6.07l30.8 4.91-16.23 26.62a52 52 0 0 0-7.24 31.78Z"/></g><path fill="#102770" d="M1649.09 3068.32h-1.75a76.53 76.53 0 0 1-60.22-31.38 97.65 97.65 0 0 1-129.66-49.94 98.36 98.36 0 0 1-25.06 2.57c-43.61-1-65.76-46.5-65.94-135.29a84.92 84.92 0 0 1-58.51-30 85.31 85.31 0 0 1 119.42-120.89 94.14 94.14 0 0 1 32.93-33.77c-14.75-46.65-.44-99.28 37.89-131.69a124 124 0 0 1 86.38-28.92 63.62 63.62 0 0 1 28.36-33.45 83.49 83.49 0 0 1 83.8-99 111.83 111.83 0 0 1 76.47-79.73 172.14 172.14 0 0 1 301.8-29.15 77.21 77.21 0 0 1 89.36-1.28 83.28 83.28 0 0 1 119.1 52 170.56 170.56 0 0 1 122.26 60.76 172.33 172.33 0 0 1 34.2 158 63.37 63.37 0 0 1 42.34 72.39 111.88 111.88 0 0 1 25.11 135.83 172.13 172.13 0 0 1-150.74 224.93 123.42 123.42 0 0 1-207.78 31.38 123.89 123.89 0 0 1-17.12-26.45l-413.08 49a77.52 77.52 0 0 1-69.56 44.08Zm-53.58-82a20.91 20.91 0 0 1 20.07 15 34.82 34.82 0 0 0 32.73 25.1 35.19 35.19 0 0 0 34.79-26.42 20.92 20.92 0 0 1 17.83-15.72l441.78-52.42a20.94 20.94 0 0 1 22.42 14.5 81.6 81.6 0 0 0 130.54 38 80.81 80.81 0 0 0 25.82-40.08 20.91 20.91 0 0 1 20.13-15.26h2.15a130.3 130.3 0 0 0 121.12-178.06 20.9 20.9 0 0 1 2-19.15 70.06 70.06 0 0 0-20.65-97.15 20.9 20.9 0 0 1-7.14-27.43 21.27 21.27 0 0 0-23.76-30.65 20.92 20.92 0 0 1-23.79-29.43 130.34 130.34 0 0 0-124.93-186.9 20.92 20.92 0 0 1-22.1-20.59 41.13 41.13 0 0 0-9.83-26.24 41.56 41.56 0 0 0-58.45-4.87 21 21 0 0 1-29.09-1.91 35.92 35.92 0 0 0-58.11 6.81 20.91 20.91 0 0 1-37.51-1.76 130.3 130.3 0 0 0-242.89 9.72 20.89 20.89 0 0 1-16.16 13.87 68.12 68.12 0 0 0-32.53 15.35 70.12 70.12 0 0 0-24.77 50.84 20.91 20.91 0 0 1-27.39 19.09 41.23 41.23 0 0 0-39.71 7.74A41.74 41.74 0 0 0 1658 2479a20.9 20.9 0 0 1-16.31 30.4 21.3 21.3 0 0 0-19 22.19 20.9 20.9 0 0 1-25.79 21.34 81.53 81.53 0 0 0-91.09 117.53 20.92 20.92 0 0 1-12.28 29.8 52.06 52.06 0 0 0-36.47 54.65 20.91 20.91 0 0 1-41.35 5.91 43.45 43.45 0 1 0-32.4 50.7 20.92 20.92 0 0 1 25.62 22.88c-.26 2.12-.43 4.28-.49 6.44-1.7 73.45 11.3 106.66 24.94 107a58.63 58.63 0 0 0 28.21-6.48 20.9 20.9 0 0 1 30.29 15.37 55.72 55.72 0 0 0 90.34 34.49 20.94 20.94 0 0 1 13.29-4.85Z"/><path fill="#102770" d="M1699.12 3026a20.91 20.91 0 0 1-.28-41.82l4.27-.06h.29a20.91 20.91 0 0 1 .28 41.82l-4.27.06Z"/><path fill="#fff" d="M2078 3083.9c-3.2-58-53.57-102.16-111.64-100.53l-169.36 4.74c-19 .53-35.84-11.76-41.84-29.84a107.92 107.92 0 0 0-210.34 36.89v.63a74.66 74.66 0 0 0-10-.35 82.3 82.3 0 0 0-77.07 60.54 82.29 82.29 0 0 0 123.5 91.15c-.14 2-.2 4.08-.14 6.13a60.23 60.23 0 0 0 61.88 58.51 59.39 59.39 0 0 0 15.76-2.58v2.14a122.42 122.42 0 0 0 244.39 6.43 67.72 67.72 0 0 0 18.54 2 68.69 68.69 0 0 0 49.79-23.31c1 .05 2 0 3 0a106.17 106.17 0 0 0 63.85-23.51 106.29 106.29 0 0 0 39.68-89.04Z"/><path fill="#102770" d="M1781.12 3351.23c-70.15 0-129.29-50.95-141.12-118.53a81.3 81.3 0 0 1-75.64-55.48 103.24 103.24 0 0 1-130.36-96.64 102.19 102.19 0 0 1 3.63-30.18c11-40.35 46.17-70.19 87.31-75.17a128.85 128.85 0 0 1 124.14-111.87c56.69-1.47 108.26 34.76 125.93 88.36 3.16 9.51 11.63 15.75 21.4 15.48l169.37-4.74c69.72-1.63 129.32 52 133.1 120.26a127.82 127.82 0 0 1-46 105.42l-1.33 1.09a126.32 126.32 0 0 1-71 27.86 90.23 90.23 0 0 1-58.2 23.59h-1.58a143 143 0 0 1-135.57 110.46c-1.37.07-2.73.09-4.08.09Zm-100.73-170.46-.69 28.93v1a101.51 101.51 0 0 0 202.64 5.39l2-24.66 24 6a47 47 0 0 0 12.86 1.38 47.62 47.62 0 0 0 34.69-16.24l6.68-7.58 10.09.52h1.33a85 85 0 0 0 50.76-18.42l.63-.51a85.88 85.88 0 0 0 31.79-71.54c-2.54-45.86-43-82.11-90.18-80.78l-169.41 4.74c-28.22.7-53.25-17-62.28-44.16-11.94-36.22-46.85-60.91-85-59.68a87 87 0 0 0-84.54 89.4l.67 23.88-23.74-1.86a59.27 59.27 0 0 0-7.18-.25 61.76 61.76 0 0 0-57.5 45.14 60.3 60.3 0 0 0-2.15 17.93 61 61 0 0 0 24.47 47.3 60.3 60.3 0 0 0 38.59 12.3 61.09 61.09 0 0 0 31.17-9.51l35-22.31-2.87 41.39c-.09 1.35-.14 2.72-.1 4.09a39 39 0 0 0 12.29 27.46 38.64 38.64 0 0 0 28.1 10.74 39.1 39.1 0 0 0 10.27-1.68Z"/><path fill="#102770" d="M1454.89 3080a82.32 82.32 0 0 0 126.41 67.11 52.56 52.56 0 0 0-.15 6.14 60.22 60.22 0 0 0 61.88 58.51 58.85 58.85 0 0 0 15.75-2.58v2.15a122.43 122.43 0 0 0 244.28 7.9 122.4 122.4 0 0 1-222.22-67.23c0-.72 0-1.44-.06-2.15a60.14 60.14 0 0 1-77.63-55.93 54.13 54.13 0 0 1 .16-6.13 82.32 82.32 0 0 1-126.31-66.13 82.31 82.31 0 0 0-22.06 58.34Z" opacity=".3"/><g opacity=".3"><path fill="#6b184e" d="M1904 3217.93a5.27 5.27 0 0 1-.77-.16c0 .51-.07 1-.11 1.46.31-.45.59-.85.88-1.3Z"/><path fill="#102770" d="m1873.87 3294.68 8.45-77.71.69-26.13 24.43 6.42 32.35 3.24-18.13 28.62c-.54.84-1.06 1.61-1.67 2.45Z"/></g><path fill="#102770" d="M1781.05 3351.23A143.4 143.4 0 0 1 1640 3232.7a81.31 81.31 0 0 1-75.62-55.47 103.94 103.94 0 0 1-24.32 3.59c-56.92 1.7-104.46-43.37-106-100.24a103.35 103.35 0 0 1 91-105.37 128.76 128.76 0 0 1 124.09-111.85c56.52-1.4 108.28 34.75 126 88.35 3.14 9.54 11.69 15.77 21.4 15.49l169.37-4.74c69.62-1.67 129.32 52 133.11 120.27a127.53 127.53 0 0 1-118.38 134.36 90.26 90.26 0 0 1-58.21 23.59h-1.58a143 143 0 0 1-135.56 110.46c-1.51.07-2.88.09-4.25.09Zm-122.27-162.95a20.93 20.93 0 0 1 20.9 21.52v.92a101.5 101.5 0 0 0 202.63 5.39 20.92 20.92 0 0 1 26-18.62 48.45 48.45 0 0 0 12.84 1.38 47.59 47.59 0 0 0 34.7-16.24 21 21 0 0 1 16.77-7.06h1.33a85.72 85.72 0 0 0 83.22-90.5c-2.56-45.86-43-82.1-90.19-80.78l-169.39 4.71c-28.38.73-53.31-17-62.29-44.2-11.94-36.19-47-60.82-85.07-59.64a87 87 0 0 0-84.54 89.4 21.6 21.6 0 0 1-6.68 16.25 21 21 0 0 1-16.39 5.77 59.35 59.35 0 0 0-7.18-.25A61.36 61.36 0 1 0 1570 3129.5a20.92 20.92 0 0 1 32.11 19.08c-.09 1.35-.14 2.72-.1 4.09a39.08 39.08 0 0 0 12.29 27.46 38.68 38.68 0 0 0 28.1 10.74 39.66 39.66 0 0 0 10.28-1.68 20.74 20.74 0 0 1 6.1-.91Z"/><path fill="#fbbc91" d="M3694.82 3110.48v.07c1 67.79-11.4 134.59-33.78 189.3-9.94 24.28-21.83 46.17-35.47 64.78-2.73 3.78-5.53 7.35-8.47 10.84a44.18 44.18 0 0 1-3.71 4.41c-1.39 1.61-2.79 3.15-4.26 4.69l-3.57 3.78c-1.89 1.82-3.71 3.63-5.6 5.38-2.79 2.59-5.73 5-8.67 7.42-1.54 1.26-3.08 2.45-4.69 3.64-1.4 1.05-2.8 2-4.27 3a113.54 113.54 0 0 1-13.71 8.19c-.91.49-1.75.91-2.66 1.33-1.18.63-2.44 1.19-3.7 1.75a25.52 25.52 0 0 1-2.45 1c-1.26.56-2.52 1.12-3.78 1.54s-2.87 1-4.34 1.53h-.07l-403.16-139.49c-124.87-52.68-282.27-46.94-430.16-3.85-355.94 77-690.82-16.93-1010.66-232.74-71.78-52-43.59-105.64 27.35-97.94-20.71-11.89-40.5-24.28-59.11-37.36q-5.36-3.67-10.5-7.34-7.55-5.57-14.48-11.34c-3.08-2.52-6-5.1-8.88-7.69s-5.53-5.18-8.19-7.77c-32.39-32.11-48.2-65.55-45.68-90a30.39 30.39 0 0 1 .49-3.64c.21-1 .35-1.89.63-2.8s.42-1.68.7-2.52a16 16 0 0 1 1-2.72.93.93 0 0 1 .21-.49 34.77 34.77 0 0 1 1.75-3.64 30.82 30.82 0 0 1 5.25-6.86 13.49 13.49 0 0 1 2.51-2.45 19.44 19.44 0 0 1 2.66-2.09 13.18 13.18 0 0 1 1.61-1.12 28.55 28.55 0 0 1 3.5-2 51.73 51.73 0 0 1 13-4.69 19 19 0 0 1 2.87-.63l1-.21h.14a77.46 77.46 0 0 1 9.51-1.05c2-.14 3.92-.21 6-.21a160 160 0 0 1 34.77 4.27q-41.78-22.14-82-46.45c-91.44-58.84-86.4-147.4 2.66-142.29 18 1 35.46 6.36 51.69 14.41 188.4 93.74 366.79 158.38 526.92 170.76-132.85-42.46-276.54-107.31-407.71-204.76-117-80-72.68-196.58 68.28-134.6 191.19 113.12 524.67 208.68 630 196.09-183.08-62.4-310.4-138.58-284.73-252.19.91-4 2-7.91 3.29-12 .21-.84.49-1.67.77-2.58.77-2.45 1.68-5 2.66-7.56s2-5 3.15-7.62c10.49-24.28 41.83-31.9 62.26-15.12 8 6.51 16.09 12.81 24.27 18.82 72.13 52.75 156.29 86.89 244.36 102 207.84 35.68 373.71 91.57 457.59 170.62L3091 2756.76a252.8 252.8 0 0 0 175.38 103.11l335.72 40.09a75.4 75.4 0 0 1 60.93 46.38c.91 2.24 1.82 4.48 2.66 6.72 19.31 49.27 28.43 103.62 29.13 157.42Z"/><path fill="#fff" d="M2155.62 2794.37c-160.1-12.41-338.46-77.09-526.88-170.79-16.23-8-33.71-13.42-51.73-14.44-21.3-1.24-37.84 3-49.31 10.77-2.73-32.3 20.91-56.72 68.82-54 18 1 35.5 6.4 51.72 14.43 90.67 45 179 83.49 264.11 112.51h.08c81.69 43.15 164.31 76.24 243.19 101.52Z" opacity=".55"/><path fill="#fff" d="M2446.25 2651c-105.33 12.64-438.87-82.93-630-196.07-54-23.71-93.86-21.3-115.87-4.6-1.79-47.12 48.46-76.85 135.37-38.62 125.15 74 311.39 140.59 454.63 174.14 21.3 11.4 44.79 22.4 69.91 32.85l-9.13-10.92h114.62c40.39 14.39 19.95 43.22-19.53 43.22Z" opacity=".55"/><path fill="#fff" d="M3663.21 2946.3c.9 2.23 1.79 4.46 2.65 6.71l-30.71-3.64-388.15-46.31a253.39 253.39 0 0 1-175.38-103.12l-111.79-154.46c-83.88-79.12-249.74-134.95-457.59-170.63-88.07-15.11-172.16-49.32-244.35-102.06-8.19-5.95-16.3-12.25-24.28-18.75-15.95-13.15-38.47-11.34-52.61 1.61.91-3.92 2-7.91 3.29-12 .21-.84.49-1.67.77-2.58.77-2.45 1.68-5 2.66-7.56s2-5 3.15-7.62c10.49-24.28 41.83-31.9 62.26-15.12 8 6.51 16.09 12.81 24.27 18.82 72.13 52.75 156.29 86.89 244.36 102 207.84 35.68 373.71 91.57 457.59 170.62l111.79 154.47a252.8 252.8 0 0 0 175.38 103.11l335.73 40.06a75.48 75.48 0 0 1 60.96 46.45Z" opacity=".55"/><path fill="#102770" d="M1746.65 2928.78c28.47 18.29 59.37 34.77 90.65 50.29s63.4 30 95.8 43.75c64.86 27.33 131.05 52.17 199.11 71.62-69.84-11.85-138.82-29.35-207-49.6-34.11-10.21-68-21.25-101.67-33.48s-67-25.54-100.15-42a23.45 23.45 0 1 1 20.84-42 24.36 24.36 0 0 1 2.24 1.26Z"/><path fill="#102770" d="M3551.69 3446.52a23.87 23.87 0 0 1-7.72-1.29l-403.16-139.49c-.49-.17-1-.35-1.44-.55-111.87-47.19-259.08-48.24-414.52-2.94-.53.15-1.06.28-1.6.4q-127.1 27.51-252.85 27.54c-258.48 0-514.31-87.28-775.86-263.76l-.63-.44c-42.09-30.49-60-67.57-47.78-99.2 4.8-12.47 13.62-22.47 25.48-29.56q-4.66-3.17-9.19-6.35c-3.48-2.39-7.1-4.92-10.64-7.45-5.65-4.15-10.89-8.25-15.86-12.39-3.22-2.63-6.43-5.47-9.57-8.29s-6-5.67-8.85-8.39c-36.71-36.4-55.83-75.93-52.68-108.72a57 57 0 0 1 .78-5.82c0-.26.09-.51.14-.77.31-1.51.57-2.7.88-3.83s.62-2.39 1-3.58a38.24 38.24 0 0 1 2.06-5.39c.77-1.88 1.68-3.7 2.63-5.49a54.33 54.33 0 0 1 8.52-11.56 37.66 37.66 0 0 1 4.79-4.64 44.21 44.21 0 0 1 4.06-3.2c.81-.6 1.65-1.17 2.51-1.72a49.06 49.06 0 0 1 4.33-2.59q-7.38-4.35-14.72-8.78c-58.82-37.83-88.4-92.35-74.2-136 11-33.73 44.73-52.32 90.28-49.69 20 1.09 40.46 6.74 60.76 16.81 96.21 47.87 184.54 85.4 266 112.92a1298.83 1298.83 0 0 1-170.77-106.89c-76.38-52.37-88.63-116.83-67.66-154.6 18.61-33.51 71.4-59 159-20.49a22.54 22.54 0 0 1 2.49 1.29c124.47 73.64 313 140.56 454.18 173.15-93-49.75-165.31-118.28-143.62-214.28 1.09-4.77 2.29-9.17 3.67-13.44a110 110 0 0 1 .68-2.3s.21-.67.22-.69c.9-2.85 1.95-5.79 3.09-8.8s2.31-5.74 3.54-8.61a63.72 63.72 0 0 1 98.62-23.92c7.62 6.22 15.48 12.31 23.28 18.05 67.26 49.18 148.35 83 234.45 97.78 229 39.31 387 98.74 469.68 176.66a24.12 24.12 0 0 1 2.91 3.31L3110.13 2743a230 230 0 0 0 159.17 93.59l335.75 40.06a98.87 98.87 0 0 1 79.83 60.82c1 2.36 1.91 4.74 2.83 7.14 42.54 109.88 40.57 252.8-5 364.12-29.16 71.54-73.1 120.08-123.72 136.64a23.34 23.34 0 0 1-7.3 1.15Zm0-23.41Zm-394.85-161.36 394.54 136.51c34.54-14.57 65.58-52.29 88-107.24 41.31-100.89 43.15-230.23 4.68-329.56-.81-2.1-1.63-4.18-2.48-6.26a52.07 52.07 0 0 0-42-32l-335.72-40a276.94 276.94 0 0 1-191.6-112.67l-110.44-152.6c-75.36-69.8-228.77-126.18-443.91-163.11-93.19-16-181.1-52.7-254.21-106.17-8.49-6.24-17-12.82-25.26-19.58a16.9 16.9 0 0 0-26 6.26c-1 2.3-1.93 4.56-2.81 6.81-.75 2-1.52 4.09-2.16 6.13l-.41 1.34c-.1.35-.32 1.14-.43 1.49-1 3.13-1.89 6.27-2.71 9.88-19 84.23 66.58 155.69 269.45 224.84a23.4 23.4 0 0 1-4.78 45.39c-109.26 13-446.9-82.59-643.47-198.45-54.23-23.51-88.24-16.55-97.93.9-11.1 20 3.88 59.57 53.53 93.49l.75.54c114.62 85.16 249.5 152.87 400.87 201.26a23.4 23.4 0 0 1-8.93 45.63c-149.43-11.56-324.6-68.19-535.53-173.15-14.55-7.2-28.87-11.25-42.55-12-11.13-.65-37.42-.21-43.15 17.43-6.26 19.22 10.43 53.49 54.43 81.8a1687.87 1687.87 0 0 0 80.29 45.46 23.41 23.41 0 0 1-16.1 43.52c-12.81-2.89-24.41-4.25-34-3.55a58.75 58.75 0 0 0-7.35.79c-.37.08-1 .18-1.45.25s-.81.22-1.22.32a28.64 28.64 0 0 0-7.16 2.49 11.9 11.9 0 0 0-1.33.71l-.68.45c-.33.25-.68.5-1 .74s-.5.44-.77.66-.65.72-1 1.06a7.08 7.08 0 0 0-1.33 1.67 9.46 9.46 0 0 0-.46.91c-.15.37-.3.73-.45 1.07l-.24.54-.12.38c-.09.36-.23.9-.36 1.38l-.32 1.72c0 .38 0 .47-.06.85-1.4 13.59 7.94 40.34 38.87 71 2.37 2.31 5 4.76 7.6 7.21 2.38 2.14 5 4.48 7.82 6.77q6.6 5.49 13.53 10.58c3 2.18 6.42 4.54 9.87 6.91 17.43 12.25 36.18 24.1 57.52 36.35a23.41 23.41 0 0 1-14.18 43.57c-24.15-2.63-39.73 3.68-42.65 11.25-3.12 8.11 5.34 25.39 31.24 44.24 334.93 225.91 659.25 300.89 991.5 229.22 165.05-48.07 322.77-46.41 444.22 4.57Zm-1545.1-474.08c0 .12-.07.23-.1.33.04-.11.07-.22.1-.33Zm3.3-6.7Zm1.61-1.64Zm1.91-1.15-.62.51Zm0 0Zm9.82-3.26Z"/><path fill="#102770" d="M1686.89 2734c74.7 44 153.49 82.5 234.11 116.65a2145.29 2145.29 0 0 0 248.27 87.74 2155.65 2155.65 0 0 1-256.41-65.79c-84.25-27.2-167.23-58.9-248-97.31A23.43 23.43 0 1 1 1685 2733c.62.29 1.22.61 1.8.95Z"/><path fill="#102770" d="M3694.82 3110.55c1 67.79-11.4 134.59-33.78 189.3-9.94 24.28-21.83 46.17-35.47 64.78-2.73 3.78-5.53 7.35-8.47 10.84-1.19 1.54-2.45 3-3.71 4.41-1.39 1.61-2.79 3.15-4.26 4.69l-3.57 3.78c-1.89 1.82-3.71 3.63-5.6 5.38-2.79 2.59-5.73 5-8.67 7.42-1.54 1.26-3.08 2.45-4.69 3.64-1.4 1.05-2.8 2-4.27 3a113.54 113.54 0 0 1-13.71 8.19c-.91.49-1.75.91-2.66 1.33-1.18.63-2.44 1.19-3.7 1.75a25.52 25.52 0 0 1-2.45 1c-1.26.56-2.52 1.12-3.78 1.54s-2.87 1-4.34 1.53h-.07l-403.16-139.49c-124.87-52.68-282.27-46.94-430.16-3.85-355.94 77-690.82-16.93-1010.66-232.74-71.78-52-43.59-105.64 27.35-97.94-20.71-11.89-40.5-24.28-59.11-37.36q-5.36-3.67-10.5-7.34-7.55-5.57-14.48-11.34c-3.08-2.52-6-5.1-8.88-7.69s-5.53-5.18-8.19-7.77c-32.39-32.11-48.2-65.55-45.68-90a30.39 30.39 0 0 1 .49-3.64c.21-1 .35-1.89.63-2.8s.42-1.68.7-2.52a16 16 0 0 1 1-2.72.93.93 0 0 1 .21-.49 34.77 34.77 0 0 1 1.75-3.64 30.82 30.82 0 0 1 5.25-6.86 13.49 13.49 0 0 1 2.51-2.45 19.44 19.44 0 0 1 2.66-2.09 13.18 13.18 0 0 1 1.61-1.12 28.55 28.55 0 0 1 3.5-2 51.73 51.73 0 0 1 13-4.69 19 19 0 0 1 2.87-.63l1-.21h.14l55.82 5.95 131.94 63.52c-45.89 14.69-92.69 136.76 77 200.35-48.83 35.89 29.25 115.78 299.77 156.85 271.64 41.13 485.5 37 602-68.91 91.65-107.31 202.88-117 337.48-10.28 59 46.73 124.73 84.08 196 108.08 70 23.57 140 47 207 65.06h.14c94.07-.99 160.46-157.62 162.2-161.82Z" opacity=".3"/><ellipse cx="2761.26" cy="2773.97" fill="#fff" opacity=".2" rx="137.51" ry="61.83"/><ellipse cx="426.7" cy="1066.93" fill="#a99f9d" rx="121.6" ry="272.13"/><g opacity=".3"><path fill="#6b184e" d="M548.3 1066.93c0 150.27-54.46 272.14-121.56 272.14S305.1 1217.2 305.1 1066.93a593.49 593.49 0 0 1 3.59-65.61c13.11 118.59 61 206.52 118.05 206.52s104.86-87.93 118-206.52a593.49 593.49 0 0 1 3.56 65.61Z"/><path fill="#102770" d="M426.74 1342.57c-69 0-125.14-123.65-125.14-275.64a599.57 599.57 0 0 1 3.61-66l3.5-31.32 3.46 31.32c13 117.86 61.21 203.41 114.57 203.41 54.17 0 101.25-83.64 114.49-203.41l3.46-31.32 3.49 31.32a597.12 597.12 0 0 1 3.61 66c0 151.99-56.09 275.64-125.05 275.64ZM309.56 1032.9c-.64 11.26-1 22.63-1 34 0 148.13 53 268.64 118.14 268.64s118.1-120.48 118.1-268.61c0-11.4-.32-22.77-1-34-18 106.52-64.25 178.44-117.1 178.44s-99.13-71.96-117.14-178.47Z"/></g><path fill="#fff" d="M548.3 1066.93q0 14.4-.71 28.56c-6.86-135.6-58.36-240.85-120.77-240.85-62.73 0-114.46 106.34-120.94 242.88-.54-10.07-.78-20.29-.78-30.59 0-150.27 54.46-272.14 121.64-272.14S548.3 916.66 548.3 1066.93Z" opacity=".55"/><path fill="#102770" d="M426.7 1362.47c-82.66 0-145-127-145-295.54S344 771.4 426.7 771.4s145 127.05 145 295.53-62.33 295.54-145 295.54Zm0-544.26c-46.44 0-98.19 102.14-98.19 248.72s51.75 248.73 98.19 248.73 98.19-102.15 98.19-248.73-51.75-248.72-98.19-248.72Z"/><path fill="#a99f9d" d="M1469.58 1181.39v273.31h-291.26v-226a25.19 25.19 0 0 0-25.2-25.2H493.53a60.21 60.21 0 0 1-46.82-22.31 58 58 0 0 1-12.09-25.67 439.55 439.55 0 0 1-7.8-83.25c0-42.91 5.93-83.1 16.23-117.19a60.12 60.12 0 0 1 57.58-42.83h699.77c148.6-.03 269.18 120.43 269.18 269.14Z"/><path fill="#fff" d="M1469.58 1181.39v52.2c0-148.63-120.55-269.18-269.18-269.18H500.63a60.13 60.13 0 0 0-57.58 42.84c-8.2 27.15-13.66 58.12-15.45 91.28-.55-8.66-.78-17.4-.78-26.29 0-42.91 5.93-83.1 16.23-117.19a60.12 60.12 0 0 1 57.58-42.83h699.77c148.6 0 269.18 120.46 269.18 269.17Z" opacity=".55"/><path fill="#102770" d="M1469.58 1478.08h-291.26a23.4 23.4 0 0 1-23.4-23.4v-226a1.82 1.82 0 0 0-1.82-1.82H493.53c-39.78 0-74.21-28.11-81.87-66.85a462 462 0 0 1-8.25-87.79c0-43.78 6-86.64 17.23-124a83 83 0 0 1 80-59.48h699.76c161.33 0 292.58 131.26 292.58 292.59v273.31a23.4 23.4 0 0 1-23.4 23.44Zm-267.85-46.81h244.44v-249.9c0-135.52-110.25-245.77-245.77-245.77H500.63a36.51 36.51 0 0 0-35.17 26.16c-10 33-15.24 71.2-15.24 110.45a414.7 414.7 0 0 0 7.38 78.8c3.32 16.78 18.43 29 35.93 29h659.57a48.68 48.68 0 0 1 48.63 48.63Z"/><path fill="#a99f9d" d="M926.63 704.78h145.11a57.16 57.16 0 0 1 57.16 57.16v150.25H869.47V761.94a57.16 57.16 0 0 1 57.16-57.16Z"/><path fill="#fff" d="M1128.93 791.23v43.61a80 80 0 0 0-80-80h-99.45a79.93 79.93 0 0 0-80 80v-43.61a79.93 79.93 0 0 1 80-80H1049a80 80 0 0 1 79.93 80Z" opacity=".55"/><path fill="#a99f9d" d="M959.53 622.34h82.44v82.44h-82.44z"/><path fill="#102770" d="M1045.47 708.28H956v-89.44h89.43Zm-82.44-7h75.45v-75.44H963Z"/><path fill="#6b184e" d="M959.53 622.34h82.44v82.44h-82.44z" opacity=".3"/><path fill="#102770" d="M1128.9 935.6H869.47a23.41 23.41 0 0 1-23.4-23.41V784.76a103.49 103.49 0 0 1 103.37-103.38h99.48a103.49 103.49 0 0 1 103.38 103.38v127.43a23.41 23.41 0 0 1-23.4 23.41Zm-236-46.82h212.61v-104a56.64 56.64 0 0 0-56.57-56.57h-99.5a56.63 56.63 0 0 0-56.56 56.57Z"/><path fill="#102770" d="M1042 728.19h-82.47a23.41 23.41 0 0 1-23.4-23.41v-82.44a23.41 23.41 0 0 1 23.4-23.41H1042a23.41 23.41 0 0 1 23.4 23.41v82.44a23.41 23.41 0 0 1-23.4 23.41Zm-59-46.81h35.63v-35.64h-35.69Z"/><path fill="#a99f9d" d="M1346.51 557a52.23 52.23 0 0 1-52.12 52.2c-1.09 0-2.11 0-3.2-.08l-225.4-13.66A74.2 74.2 0 0 0 1076.4 557a75.52 75.52 0 0 0-6.24-30l218.92-21.92a52.24 52.24 0 0 1 57.43 51.92Z"/><path fill="#fff" d="M1346.54 557a51.4 51.4 0 0 1-4 20 52.35 52.35 0 0 0-53.45-31.91l-213.29 21.33a74.28 74.28 0 0 0-5.62-39.48L1289.11 505a52.25 52.25 0 0 1 57.43 52Z" opacity=".55"/><path fill="#a99f9d" d="m935.65 595.56-225.33 13.58c-1.09.08-2.11.08-3.2.08a52.21 52.21 0 1 1 5.31-104.16L931.28 527a75.94 75.94 0 0 0 4.37 68.58Z"/><path fill="#fff" d="m925.3 566.85-212.85-21.3a52.19 52.19 0 0 0-54.22 34.1 49.89 49.89 0 0 1-3.2-17.79 52.23 52.23 0 0 1 57.42-52l218.86 21.92a75.47 75.47 0 0 0-6.17 30c0 1.72.08 3.43.16 5.07Z" opacity=".55"/><path fill="#a99f9d" d="M1076.4 557a74.2 74.2 0 0 1-10.61 38.46A75.19 75.19 0 1 1 1076.4 557Z"/><path fill="#fff" d="M1072.45 532.87a75.61 75.61 0 0 0-119.06 82.94 76.23 76.23 0 0 1-17.72-20.28 75.64 75.64 0 1 1 134.51-68.59c.82 1.95 1.56 3.91 2.27 5.93Z" opacity=".55"/><path fill="#102770" d="M1294.39 635.54c-1.74 0-3.35 0-5.09-.15l-225.1-13.63a26.33 26.33 0 0 1-21-39.9 48 48 0 0 0 6.81-24.85 49.19 49.19 0 0 0-4.07-19.59 26.32 26.32 0 0 1 21.54-36.65l218.93-21.93a78.55 78.55 0 1 1 7.93 156.7Zm-192.66-64.27 191 11.57h1.61a25.85 25.85 0 0 0 25.84-25.84 25.91 25.91 0 0 0-28.5-25.76l-189.18 19q.23 3.39.23 6.81a101 101 0 0 1-1 14.22ZM707.12 635.54a78.54 78.54 0 1 1 7.9-156.7l218.88 21.93a26.33 26.33 0 0 1 21.55 36.65 49.7 49.7 0 0 0 2.8 44.63 26.33 26.33 0 0 1-21 39.79l-225.34 13.57c-1.44.11-3.05.13-4.79.13Zm0-104.43a25.88 25.88 0 0 0 0 51.76h1.33l191.33-11.53a103.36 103.36 0 0 1-1-14.32q0-3.42.22-6.81l-189.2-19c-.88-.05-1.8-.1-2.63-.1Z"/><path fill="#102770" d="M1000.79 659A102.71 102.71 0 0 1 913 609a101.94 101.94 0 1 1 87.79 50Zm0-151.21a49.53 49.53 0 0 0-45.38 29.76 49.29 49.29 0 0 0 87.69 44.6 48.21 48.21 0 0 0 7-25.09 49.29 49.29 0 0 0-49.27-49.27Z"/><path fill="#102770" d="M1469.58 1267.21v187.49h-291.26v-226a25.19 25.19 0 0 0-25.2-25.2H493.53a60.21 60.21 0 0 1-46.82-22.31c-12-63.75-19.89-108.92-19.89-108.92h785.36a61 61 0 0 1 61 61.09v92.14c0 56.33 48.14 102.37 104.15 96.44 34.35-3.62 69.54-20.4 92.25-54.73Z" opacity=".3"/><rect width="395.31" height="113.13" x="1125.75" y="1393.78" fill="#a99f9d" rx="56.57"/><path fill="#102770" d="M1464.5 1510.41h-282.18a60.07 60.07 0 0 1 0-120.13h282.18a60.07 60.07 0 0 1 0 120.13Zm-282.18-113.13a53.07 53.07 0 1 0 0 106.13h282.18a53.07 53.07 0 1 0 0-106.13Z"/><g opacity=".55"><path fill="#fff" d="M1521.07 1456.83a55 55 0 0 1-3.35 19 56.5 56.5 0 0 0-53.22-37.53h-282.2a56.33 56.33 0 0 0-40 16.54 55.28 55.28 0 0 0-13.26 21 55 55 0 0 1-3.36-19 56.75 56.75 0 0 1 56.57-56.56h282.2a56.6 56.6 0 0 1 56.62 56.55Z"/><path fill="#102770" d="m1129.16 1486.18-3.35-9.1a58.34 58.34 0 0 1-3.57-20.25 60.23 60.23 0 0 1 60.06-60.06h282.21a60.13 60.13 0 0 1 60.06 60.06 58.57 58.57 0 0 1-3.57 20.25l-3.34 9.06-3.24-9.1a53.09 53.09 0 0 0-49.91-35.2H1182.3a52.61 52.61 0 0 0-37.47 15.52 52.07 52.07 0 0 0-12.44 19.68Zm53.14-51.34h282.21a60.12 60.12 0 0 1 52.34 30.7 52.32 52.32 0 0 0 .72-8.71 53.12 53.12 0 0 0-53.06-53.06H1182.3a53 53 0 0 0-52.35 61.74 58.44 58.44 0 0 1 10-13.12 59.56 59.56 0 0 1 42.35-17.55Z"/></g><path fill="#102770" d="M1464.5 1530.32h-282.18a80 80 0 0 1 0-160h282.18a80 80 0 0 1 0 160Zm-282.18-113.14a33.16 33.16 0 1 0 0 66.32h282.18a33.16 33.16 0 1 0 0-66.32Z"/><path fill="#22a7f0" d="M2181 1593.1s175.56-188.45 306.73-117.23c136.47 74.09 65 230.94-51.25 190.14-84.05-29.51-171.63-76.4-255.48-72.91Z"/><path fill="#102770" d="M2553.06 1623.19c-18.4 38.12-62.61 61.7-116.55 42.81-84.09-29.52-171.67-76.39-255.48-72.9 0 0 18.26-19.58 47.36-43.72 83.74-3.43 171.32 43.38 255.34 72.9 25.95 9.09 49.67 8.39 69.33.91Z" opacity=".3"/><path fill="#fff" d="M2528 1654.46c13.85-43.1-3-99.34-70-135.72-89.34-48.48-199.31 23.44-260.31 74.29-5.6-.14-11.2-.14-16.72.07 0 0 175.59-188.46 306.76-117.24 93.45 50.72 89.39 140.26 40.27 178.6Z" opacity=".55"/><path fill="#102770" d="M2474 1693.8a133.92 133.92 0 0 1-44.48-8c-21.13-7.41-42.68-16-63.51-24.27-61.68-24.54-125.48-50-184.14-47.46a21 21 0 0 1-16.23-35.28c7.62-8.18 188.28-199.46 332.1-121.37 84.08 45.65 98.18 121 75.7 171.7-15.36 34.72-51.1 64.68-99.44 64.68Zm-243.43-118.7c50.84 7.6 101.53 27.77 150.95 47.44 20.44 8.13 41.58 16.54 61.9 23.67 45.73 16 79-5.56 91.65-34.1 15.41-34.76 3.66-84.67-57.36-117.8-83.4-45.31-192.51 33.23-247.1 80.79Z"/><path fill="#22a7f0" d="M2167.34 1336.23c-55.36 58.55-141.07 75.45-141.07 75.45s-25.22-83.46 9.92-154.56c34.25-69.31 92.67-79.11 128.06-55.91s56.01 79.07 3.09 135.02Z"/><path fill="#102770" d="M2199.4 1268.19c-.6 21.06-9.8 44.49-32 68-55.4 58.55-141.05 75.51-141.05 75.51s-25.23-83.53 9.88-154.6c8.1-16.37 17.47-29.41 27.7-39.38-6.4 27.46-6.24 54.35-4.19 75.44 2.26 23.3 26.23 37.81 48.15 29.59 26.78-10.04 62.23-27.18 91.51-54.56Z" opacity=".3"/><path fill="#fff" d="M2167.36 1336.21c-18.16 19.17-39.63 33.92-60.17 45a189.25 189.25 0 0 0 16.1-15.17c52.93-55.9 32.3-111.81-3.06-135-17-11.17-39.29-14.66-61.79-7.59 33.66-38.18 77.21-40.91 105.85-22.24 35.37 23.18 55.99 79.09 3.07 135Z" opacity=".55"/><path fill="#102770" d="M2026.25 1432.67a21 21 0 0 1-20.08-14.92c-1.12-3.73-27.16-92.29 11.2-169.93 19.48-39.41 48.82-66.18 82.64-75.39 26.33-7.16 53.93-3.07 75.74 11.23a99.71 99.71 0 0 1 44.07 70.87c2.69 23-1.57 58.42-37.23 96.12-59.29 62.69-148.49 80.87-152.26 81.61a21 21 0 0 1-4.08.41Zm99.47-221.67a55.63 55.63 0 0 0-14.69 2c-22.05 6-42 25-56 53.47-21.27 43.06-17.45 92.49-12.93 119.34 26.89-8.33 75.48-27.42 110-63.94 19.4-20.52 28.41-42.1 26-62.4a57.27 57.27 0 0 0-25.39-40.65 49.1 49.1 0 0 0-26.99-7.82Zm41.62 125.28Z"/><path fill="#fff" d="M2477 2622.59a48.18 48.18 0 0 1-48.19 48.19h-75.46a87 87 0 1 1 86.59-95 48.11 48.11 0 0 1 37.06 46.81Z"/><path fill="#102770" d="M2477 2622.57a48.17 48.17 0 0 1-48.19 48.19h-75.46a87 87 0 0 1-13.51-173l-27.86 27.9a48.15 48.15 0 0 0 59.31 75 87 87 0 0 0 103 6 47.93 47.93 0 0 1 2.71 15.91Z" opacity=".3"/><path fill="#102770" d="M2428.77 2688.26h-75.46a104.49 104.49 0 1 1 102.33-125.61 65.68 65.68 0 0 1-26.87 125.61Zm-75.46-174a69.51 69.51 0 1 0 0 139h75.46a30.68 30.68 0 0 0 7.14-60.53 17.48 17.48 0 0 1-13.43-15.45 69 69 0 0 0-69.17-63.01Z"/><circle cx="1991.34" cy="3021.76" r="68.77" fill="#fff" transform="rotate(-32.14 1991.333 3021.75)"/><path fill="#102770" d="M1991.4 3105.88a85.61 85.61 0 0 1-8.58-.44 84 84 0 1 1 8.58.44Zm-.16-137.55a53.48 53.48 0 1 0 5.51.28 53.65 53.65 0 0 0-5.51-.28Z"/><path fill="#102770" d="M2059.75 3028.73a68.76 68.76 0 1 1-72.42-75.62 49.48 49.48 0 1 0 72.65 64.24 72.32 72.32 0 0 1-.23 11.38Z" opacity=".3"/><path fill="#102770" d="M1991.4 3105.88a85.61 85.61 0 0 1-8.58-.44 84 84 0 1 1 8.58.44Zm-.16-137.55a53.48 53.48 0 1 0 5.51.28 53.65 53.65 0 0 0-5.51-.28Z"/></svg>